<?xml version="1.0" encoding="UTF-8"?>
<svg id="a" data-name="Layer 1" xmlns="http://www.w3.org/2000/svg" viewBox="0 0 216.04 190.6">
  <defs>
    <style>
      .b {
        stroke: #3a53a4;
      }

      .b, .c {
        fill: none;
        stroke-miterlimit: 10;
      }

      .c {
        stroke: #ed2224;
      }
    </style>
  </defs>
  <path class="c" d="m121.85,122.66h54.31c1.57,0,2.83-1.27,2.83-2.83v-28.91c0-1.57-1.27-2.83-2.83-2.83h-54.31s0,34.58,0,34.58Z"/>
  <path class="b" d="m132.04,105.37c0-2.04,1.65-3.68,3.69-3.68s3.69,1.65,3.69,3.68-1.65,3.69-3.69,3.69-3.69-1.65-3.69-3.69Z"/>
  <rect class="b" x="149.31" y="92.97" width="24.8" height="24.8"/>
  <path class="c" d="m62.8,122.66h54.31c1.57,0,2.83-1.27,2.83-2.83v-28.91c0-1.57-1.27-2.83-2.83-2.83h-54.31s0,34.58,0,34.58Z"/>
  <path class="b" d="m71,105.37c0-2.04,1.65-3.68,3.69-3.68s3.69,1.65,3.69,3.68-1.65,3.69-3.69,3.69-3.69-1.65-3.69-3.69Z"/>
  <circle class="b" cx="100.67" cy="105.37" r="12.33"/>
  <polygon class="c" points="198.25 179.79 198.25 157.11 188.66 157.11 188.66 151.44 97.96 151.44 97.96 157.11 88.37 157.11 88.37 179.79 97.96 179.79 97.96 185.46 188.66 185.46 188.66 179.79 198.25 179.79"/>
  <polygon class="b" points="97.96 170.41 97.96 160.83 112.13 160.83 112.13 162.15 188.66 162.15 188.66 164.84 175.91 164.84 175.91 169.09 124.88 169.09 124.88 164.84 112.13 164.84 112.13 170.41 97.96 170.41"/>
  <rect class="c" x=".5" y=".5" width="138.9" height="85.04" rx="8.5" ry="8.5"/>
  <rect class="b" x="121.85" y="28.85" width="9.58" height="22.68"/>
  <rect class="b" x="91.21" y="38.23" width="22.68" height="9.58"/>
  <rect class="b" x="65.7" y="52.06" width="22.68" height="9.58"/>
  <rect class="b" x="20.34" y="52.06" width="22.68" height="9.58"/>
  <rect class="b" x="17.51" y="38.23" width="22.68" height="9.58"/>
  <g>
    <path class="c" d="m199,56.73v-5.67h-51.02c-3.13,0-5.67,2.54-5.67,5.67v22.68c0,3.13,2.54,5.67,5.67,5.67h51.02v-5.67h-9.58v-22.68h9.58Z"/>
    <path class="b" d="m150.58,66.58c-1.57,0-2.83-1.27-2.83-2.83s1.27-2.83,2.83-2.83,2.83,1.27,2.83,2.83-1.27,2.83-2.83,2.83Z"/>
    <circle class="b" cx="164.98" cy="63.75" r="2.83"/>
    <path class="b" d="m179.38,66.58c-1.57,0-2.83-1.27-2.83-2.83s1.27-2.83,2.83-2.83,2.83,1.27,2.83,2.83-1.27,2.83-2.83,2.83Z"/>
  </g>
  <path class="c" d="m70.83,125.21h99.21s8.5,0,8.5,0v14.17s-8.5,0-8.5,0h-8.5v9.58h-22.68v-9.58h-51.02v9.58h-22.68v-18.09c0-3.13,2.54-5.67,5.67-5.67Z"/>
  <path class="c" d="m79.87,152.17h-13.73c-3.13,0-5.67-2.54-5.67-5.67v-10.25h-7.71v-17.01h7.71v-23.49c0-3.13-2.54-5.67-5.67-5.67H6.17c-3.13,0-5.67,2.54-5.67,5.67v84.76h8.5v9.58h22.68v-9.58h22.68v9.58h22.68v-9.58h8.5v-22.68c0-3.13-2.54-5.67-5.67-5.67Z"/>
  <path class="b" d="m21.41,129.09c-.27,1.79-1.74,3.25-3.53,3.53-2.87.44-5.31-2-4.87-4.87.27-1.79,1.74-3.25,3.53-3.53,2.87-.44,5.31,2,4.87,4.87Z"/>
  <circle class="b" cx="43.2" cy="149.82" r="4.11"/>
  <circle class="b" cx="43.2" cy="107.02" r="4.11"/>
  <path class="c" d="m142.31,47.73h54.31c1.57,0,2.83-1.27,2.83-2.83V15.98c0-1.57-1.27-2.83-2.83-2.83h-54.31s0,34.58,0,34.58Z"/>
  <path class="b" d="m152.5,30.44c0-2.04,1.65-3.68,3.69-3.68s3.69,1.65,3.69,3.68-1.65,3.69-3.69,3.69-3.69-1.65-3.69-3.69Z"/>
  <circle class="b" cx="182.17" cy="30.44" r="12.36"/>
  <circle class="c" cx="198.25" cy="105.37" r="17.29" transform="translate(-14.32 33.12) rotate(-9.22)"/>
  <circle class="b" cx="198.25" cy="105.37" r="12.4" transform="translate(55.02 278.27) rotate(-78.35)"/>
</svg>