<?xml version="1.0" encoding="UTF-8"?>
<svg id="a" data-name="Layer 1" xmlns="http://www.w3.org/2000/svg" viewBox="0 0 262.21 211.55">
  <defs>
    <style>
      .b {
        stroke: #3a53a4;
      }

      .b, .c, .d, .e {
        fill: none;
      }

      .b, .e {
        stroke-miterlimit: 10;
      }

      .c {
        stroke: #818285;
      }

      .c, .d {
        stroke-width: .5px;
      }

      .f {
        fill: #818285;
      }

      .d {
        stroke: #d2d3d4;
      }

      .e {
        stroke: #ed2224;
      }
    </style>
  </defs>
  <path class="e" d="m164.24,135.03h54.31c1.57,0,2.83-1.27,2.83-2.83v-28.91c0-1.57-1.27-2.83-2.83-2.83h-54.31s0,34.58,0,34.58Z"/>
  <path class="b" d="m174.44,117.74c0-2.04,1.65-3.68,3.69-3.68s3.69,1.65,3.69,3.68-1.65,3.69-3.69,3.69-3.69-1.65-3.69-3.69Z"/>
  <rect class="b" x="191.71" y="105.33" width="24.8" height="24.8"/>
  <path class="e" d="m105.2,135.03h54.31c1.57,0,2.83-1.27,2.83-2.83v-28.91c0-1.57-1.27-2.83-2.83-2.83h-54.31s0,34.58,0,34.58Z"/>
  <path class="b" d="m113.39,117.74c0-2.04,1.65-3.68,3.69-3.68s3.69,1.65,3.69,3.68-1.65,3.69-3.69,3.69-3.69-1.65-3.69-3.69Z"/>
  <circle class="b" cx="143.06" cy="117.74" r="12.33"/>
  <polygon class="e" points="240.64 192.15 240.64 169.48 231.06 169.48 231.06 163.81 140.35 163.81 140.35 169.48 130.77 169.48 130.77 192.15 140.35 192.15 140.35 197.82 231.06 197.82 231.06 192.15 240.64 192.15"/>
  <polygon class="b" points="140.35 182.77 140.35 173.19 154.52 173.19 154.52 174.51 231.06 174.51 231.06 177.2 218.3 177.2 218.3 181.45 167.28 181.45 167.28 177.2 154.52 177.2 154.52 182.77 140.35 182.77"/>
  <rect class="e" x="42.89" y="12.86" width="138.9" height="85.04" rx="8.5" ry="8.5"/>
  <rect class="b" x="164.24" y="41.21" width="9.58" height="22.68"/>
  <rect class="b" x="133.6" y="50.59" width="22.68" height="9.58"/>
  <rect class="b" x="108.09" y="64.43" width="22.68" height="9.58"/>
  <rect class="b" x="62.74" y="64.43" width="22.68" height="9.58"/>
  <rect class="b" x="59.9" y="50.59" width="22.68" height="9.58"/>
  <g>
    <path class="e" d="m241.4,69.09v-5.67h-51.02c-3.13,0-5.67,2.54-5.67,5.67v22.68c0,3.13,2.54,5.67,5.67,5.67h51.02v-5.67h-9.58v-22.68h9.58Z"/>
    <path class="b" d="m192.97,78.95c-1.57,0-2.83-1.27-2.83-2.83s1.27-2.83,2.83-2.83,2.83,1.27,2.83,2.83-1.27,2.83-2.83,2.83Z"/>
    <circle class="b" cx="207.37" cy="76.11" r="2.83"/>
    <path class="b" d="m221.77,78.95c-1.57,0-2.83-1.27-2.83-2.83s1.27-2.83,2.83-2.83,2.83,1.27,2.83,2.83-1.27,2.83-2.83,2.83Z"/>
  </g>
  <path class="e" d="m113.22,137.57h99.21s8.5,0,8.5,0v14.17s-8.5,0-8.5,0h-8.5v9.58h-22.68v-9.58h-51.02v9.58h-22.68v-18.09c0-3.13,2.54-5.67,5.67-5.67Z"/>
  <path class="e" d="m122.26,164.53h-13.73c-3.13,0-5.67-2.54-5.67-5.67v-10.25h-7.71v-17.01h7.71v-23.49c0-3.13-2.54-5.67-5.67-5.67h-48.64c-3.13,0-5.67,2.54-5.67,5.67v84.76h8.5v9.58h22.68v-9.58h22.68v9.58h22.68v-9.58h8.5v-22.68c0-3.13-2.54-5.67-5.67-5.67Z"/>
  <path class="b" d="m63.81,141.46c-.27,1.79-1.74,3.25-3.53,3.53-2.87.44-5.31-2-4.87-4.87.27-1.79,1.74-3.25,3.53-3.53,2.87-.44,5.31,2,4.87,4.87Z"/>
  <circle class="b" cx="85.59" cy="162.18" r="4.11"/>
  <circle class="b" cx="85.59" cy="119.38" r="4.11"/>
  <path class="e" d="m184.7,60.09h54.31c1.57,0,2.83-1.27,2.83-2.83v-28.91c0-1.57-1.27-2.83-2.83-2.83h-54.31s0,34.58,0,34.58Z"/>
  <path class="b" d="m194.9,42.8c0-2.04,1.65-3.68,3.69-3.68s3.69,1.65,3.69,3.68-1.65,3.69-3.69,3.69-3.69-1.65-3.69-3.69Z"/>
  <circle class="b" cx="224.57" cy="42.8" r="12.36"/>
  <circle class="e" cx="240.64" cy="117.74" r="17.29" transform="translate(-15.75 40.07) rotate(-9.22)"/>
  <circle class="b" cx="240.64" cy="117.74" r="12.4" transform="translate(76.75 329.65) rotate(-78.35)"/>
  <path class="d" d="m92.97,25.67h1c.55,0,1-.45,1-1s-.45-1-1-1h-1v5h1c.83,0,1.5-.67,1.5-1.5s-.67-1.5-1.5-1.5m4.8,0v3m0-.5c-.48.62-1.3.67-1.84.12-.54-.55-.58-1.5-.1-2.12.48-.62,1.3-.67,1.84-.12.04.04.07.08.1.12m3.5.25c0-.41-.56-.75-1.25-.75s-1.25.34-1.25.75.56.75,1.25.75h0c.69,0,1.25.34,1.25.75s-.56.75-1.25.75-1.25-.34-1.25-.75h0m5.8.05c-.34.72-1.1.98-1.7.57-.6-.41-.81-1.32-.47-2.04s1.1-.98,1.7-.57c.27.18.48.49.57.84h-2.3m3.3-1.1v5m0-4.5c.48-.62,1.3-.67,1.84-.12.54.55.58,1.5.1,2.12s-1.3.67-1.84.12c-.04-.04-.07-.08-.1-.12m3.2-4.5v5m3.4-3v3m0-.5c-.48.62-1.3.67-1.84.12-.54-.55-.58-1.5-.1-2.12s1.3-.67,1.84-.12c.04.04.07.08.1.12m2-1.5v4m-1-3.1h2m3.3,2.4c-.34.72-1.1.98-1.7.57-.6-.41-.81-1.32-.47-2.04.34-.72,1.1-.98,1.7-.57.27.18.48.49.57.84h-2.3"/>
  <path class="d" d="m106.87,133.35v-5h1c.83,0,1.5.56,1.5,1.25s-.67,1.25-1.5,1.25h-.95m3.45-1.5c.01-.05.07-.09.12-.07s.09.07.07.12c-.01.05-.07.09-.12.07-.04,0-.06-.04-.07-.07v-.05Zm.1.95v3m1-2.95v3m.05-2.5c.46-.64,1.28-.72,1.83-.2.06.06.12.12.17.2v2.5m.95-5v5m.05-2.5c.46-.64,1.28-.72,1.83-.2.06.06.12.12.17.2v2.5m2.35-3c-.83.01-1.49.7-1.47,1.52.01.83.7,1.49,1.52,1.47.83-.01,1.49-.7,1.47-1.52-.01-.81-.67-1.46-1.47-1.47h-.05Zm2.5-2v5m3.4-.7c-.34.72-1.1.98-1.7.57-.6-.41-.81-1.32-.47-2.04.34-.72,1.1-.98,1.7-.57.27.18.48.49.57.84h-2.3m5.8-1.1v5m0-4.5c.48-.62,1.3-.67,1.84-.12.54.55.58,1.5.1,2.12s-1.3.67-1.84.12c-.04-.04-.07-.08-.1-.12m3.2-4.5v5m3.4-3v3m0-.5c-.48.62-1.3.67-1.84.12s-.58-1.5-.1-2.12,1.3-.67,1.84-.12c.04.04.07.08.1.12m2-1.5v4m-1-3.1h2m3.3,2.4c-.34.72-1.1.98-1.7.57-.6-.41-.81-1.32-.47-2.04s1.1-.98,1.7-.57c.27.18.48.49.57.84h-2.3"/>
  <path class="d" d="m193.98,87.98c0-.69-.56-1.25-1.25-1.25s-1.25.56-1.25,1.25.56,1.25,1.25,1.25,1.25.56,1.25,1.25-.56,1.25-1.25,1.25-1.25-.56-1.25-1.25m3.5-1.75l1,3,1-2,1,2,1-3m1-1c.01-.05.07-.09.12-.07s.09.07.07.12-.07.09-.12.07c-.04,0-.06-.04-.07-.07v-.05Zm.1.95v3m2-3.95v4m-1-3.1h2m3.3.6c-.48-.62-1.3-.67-1.84-.12-.54.55-.58,1.5-.1,2.12s1.3.67,1.84.12c.04-.04.07-.08.1-.12m1-4.5v5m.05-2.5c.46-.64,1.28-.72,1.83-.2.06.06.12.12.17.2v2.5m3.45-3v5m0-4.5c.48-.62,1.3-.67,1.84-.12.54.55.58,1.5.1,2.12s-1.3.67-1.84.12c-.04-.04-.07-.08-.1-.12m3.2-4.5v5m3.4-3v3m0-.5c-.48.62-1.3.67-1.84.12s-.58-1.5-.1-2.12c.48-.62,1.3-.67,1.84-.12.04.04.07.08.1.12m2-1.5v4m-1-3.1h2m3.3,2.4c-.34.72-1.1.98-1.7.57-.6-.41-.81-1.32-.47-2.04s1.1-.98,1.7-.57c.27.18.48.49.57.84h-2.3"/>
  <path class="d" d="m194.27,15.7h-2.5v5h2.5m-2.5-3h1.5m2,0l2.5,3m-2.5,0l2.5-3m2-1v4m-1-3.1h2m1,.1v3m.05-2.5c.46-.64,1.28-.72,1.83-.2.06.06.12.12.17.2m3.25-.5v3m0-.5c-.48.62-1.3.67-1.84.12-.54-.55-.58-1.5-.1-2.12s1.3-.67,1.84-.12c.04.04.07.08.1.12m3.5-.5v5m0-4.5c.48-.62,1.3-.67,1.84-.12.54.55.58,1.5.1,2.12s-1.3.67-1.84.12c-.04-.04-.07-.08-.1-.12m3.2-3.5c.01-.05.07-.09.12-.07s.09.07.07.12-.07.09-.12.07c-.04,0-.06-.04-.07-.07v-.05Zm.1.95v3m1-2.95v3m.05-2.5c.46-.64,1.28-.72,1.83-.2.06.06.12.12.17.2v2.5m.95-5v5m.05-2.5c.46-.64,1.28-.72,1.83-.2.06.06.12.12.17.2v2.5m2.35-3c-.83.01-1.49.7-1.47,1.52.01.83.7,1.49,1.52,1.47.83-.01,1.49-.7,1.47-1.52-.01-.81-.67-1.46-1.47-1.47h-.05Zm2.5-2v5m3.4-.7c-.34.72-1.1.98-1.7.57-.6-.41-.81-1.32-.47-2.04s1.1-.98,1.7-.57c.27.18.48.49.57.84h-2.3m5.8-1.1v5m0-4.5c.48-.62,1.3-.67,1.84-.12s.58,1.5.1,2.12-1.3.67-1.84.12c-.04-.04-.07-.08-.1-.12m3.2-4.5v5m3.4-3v3m0-.5c-.48.62-1.3.67-1.84.12s-.58-1.5-.1-2.12,1.3-.67,1.84-.12c.04.04.07.08.1.12m2-1.5v4m-1-3.1h2m3.3,2.4c-.34.72-1.1.98-1.7.57-.6-.41-.81-1.32-.47-2.04s1.1-.98,1.7-.57c.27.18.48.49.57.84h-2.3"/>
  <path class="d" d="m63.54,176.58c-.5-1.1-1.44-1.33-2.1-.5-.66.83-.8,2.4-.3,3.5.5,1.1,1.44,1.33,2.1.5.11-.14.21-.31.3-.5m3.25-2v3m0-.5c-.48.62-1.3.67-1.84.12-.54-.55-.58-1.5-.1-2.12.48-.62,1.3-.67,1.84-.12.04.04.07.08.1.12m1-.5v3m.05-2.5c.46-.64,1.28-.72,1.83-.2.06.06.12.12.17.2v2.5m.05-2.5c.46-.64,1.28-.72,1.83-.2.06.06.12.12.17.2v2.5m3.3-.7c-.34.72-1.1.98-1.7.57-.6-.41-.81-1.32-.47-2.04s1.1-.98,1.7-.57c.27.18.48.49.57.84h-2.3m3.3-1.1v3m.05-2.5c.46-.64,1.28-.72,1.83-.2.06.06.12.12.17.2m3.25-.5v3m0-.5c-.48.62-1.3.67-1.84.12-.54-.55-.58-1.5-.1-2.12s1.3-.67,1.84-.12c.04.04.07.08.1.12m3.5-2.5v5m0-.5c.48.62,1.3.67,1.84.12.54-.55.58-1.5.1-2.12s-1.3-.67-1.84-.12c-.04.04-.07.08-.1.12m4.6-.5c-.83.01-1.49.7-1.47,1.52.01.83.7,1.49,1.52,1.47.83-.01,1.49-.7,1.47-1.52-.01-.81-.67-1.46-1.47-1.47h-.05Zm4.8-2v5m0-.5c-.48.62-1.3.67-1.84.12s-.58-1.5-.1-2.12,1.3-.67,1.84-.12c.04.04.07.08.1.12m1-.5l1,3m1.5-3l-2.3,5"/>
  <path class="c" d="m2.95,68.49c-.5-1.1-1.44-1.33-2.1-.5-.66.83-.8,2.4-.3,3.5.5,1.1,1.44,1.33,2.1.5.11-.14.21-.31.3-.5m3.25-2v3m0-.5c-.48.62-1.3.67-1.84.12-.54-.55-.58-1.5-.1-2.12.48-.62,1.3-.67,1.84-.12.04.04.07.08.1.12m1-.5v3m.05-2.5c.46-.64,1.28-.72,1.83-.2.06.06.12.12.17.2v2.5m.05-2.5c.46-.64,1.28-.72,1.83-.2.06.06.12.12.17.2v2.5m3.3-.7c-.34.72-1.1.98-1.7.57-.6-.41-.81-1.32-.47-2.04s1.1-.98,1.7-.57c.27.18.48.49.57.84h-2.3m3.3-1.1v3m.05-2.5c.46-.64,1.28-.72,1.83-.2.06.06.12.12.17.2m3.25-.5v3m0-.5c-.48.62-1.3.67-1.84.12-.54-.55-.58-1.5-.1-2.12s1.3-.67,1.84-.12c.04.04.07.08.1.12m3.5-2.5v5m0-.5c.48.62,1.3.67,1.84.12.54-.55.58-1.5.1-2.12s-1.3-.67-1.84-.12c-.04.04-.07.08-.1.12m4.6-.5c-.83.01-1.49.7-1.47,1.52.01.83.7,1.49,1.52,1.47.83-.01,1.49-.7,1.47-1.52-.01-.81-.67-1.46-1.47-1.47h-.05Zm4.8-2v5m0-.5c-.48.62-1.3.67-1.84.12s-.58-1.5-.1-2.12,1.3-.67,1.84-.12c.04.04.07.08.1.12m1-.5l1,3m1.5-3l-2.3,5"/>
  <path class="d" d="m148.03,147.45v-5h1c.83,0,1.5.56,1.5,1.25s-.67,1.25-1.5,1.25h-.95m6.1-1.5c-.5-1.1-1.44-1.33-2.1-.5s-.8,2.4-.3,3.5c.5,1.1,1.44,1.33,2.1.5.11-.14.21-.31.3-.5m.95-2h1c.55,0,1-.45,1-1s-.45-1-1-1h-1v5h1c.83,0,1.5-.67,1.5-1.5s-.67-1.5-1.5-1.5m5,0v3m.05-2.5c.46-.64,1.28-.72,1.83-.2.06.06.12.12.17.2m3.25,1.8c-.34.72-1.1.98-1.7.57-.6-.41-.81-1.32-.47-2.04.34-.72,1.1-.98,1.7-.57.27.18.48.49.57.84h-2.3m5.8-.35c0-.41-.56-.75-1.25-.75s-1.25.34-1.25.75.56.75,1.25.75,1.25.34,1.25.75-.56.75-1.25.75-1.25-.34-1.25-.75h0m4.5-3.25v4m-1-3.1h2"/>
  <path class="c" d="m124.27,211.24v-5h1c.83,0,1.5.56,1.5,1.25s-.67,1.25-1.5,1.25h-.95m6.1-1.5c-.5-1.1-1.44-1.33-2.1-.5s-.8,2.4-.3,3.5c.5,1.1,1.44,1.33,2.1.5.11-.14.21-.31.3-.5m.95-2h1c.55,0,1-.45,1-1s-.45-1-1-1h-1v5h1c.83,0,1.5-.67,1.5-1.5s-.67-1.5-1.5-1.5m5,0v3m.05-2.5c.46-.64,1.28-.72,1.83-.2.06.06.12.12.17.2m3.25,1.8c-.34.72-1.1.98-1.7.57-.6-.41-.81-1.32-.47-2.04.34-.72,1.1-.98,1.7-.57.27.18.48.49.57.84h-2.3m5.8-.35c0-.41-.56-.75-1.25-.75s-1.25.34-1.25.75.56.75,1.25.75,1.25.34,1.25.75-.56.75-1.25.75-1.25-.34-1.25-.75h0m4.5-3.25v4m-1-3.1h2"/>
  <path class="c" d="m4.86,59.78v-5h1c.83,0,1.5.56,1.5,1.25s-.67,1.25-1.5,1.25h-.95m6.1-1.5c-.5-1.1-1.44-1.33-2.1-.5s-.8,2.4-.3,3.5c.5,1.1,1.44,1.33,2.1.5.11-.14.21-.31.3-.5m.95-2h1c.55,0,1-.45,1-1s-.45-1-1-1h-1v5h1c.83,0,1.5-.67,1.5-1.5s-.67-1.5-1.5-1.5m5,0v3m.05-2.5c.46-.64,1.28-.72,1.83-.2.06.06.12.12.17.2m3.25,1.8c-.34.72-1.1.98-1.7.57-.6-.41-.81-1.32-.47-2.04.34-.72,1.1-.98,1.7-.57.27.18.48.49.57.84h-2.3m5.8-.35c0-.41-.56-.75-1.25-.75s-1.25.34-1.25.75.56.75,1.25.75,1.25.34,1.25.75-.56.75-1.25.75-1.25-.34-1.25-.75h0m4.5-3.25v4m-1-3.1h2"/>
  <path class="d" d="m168.88,193.31v-5h1c.83,0,1.5.56,1.5,1.25s-.67,1.25-1.5,1.25h-.95m6.1-1.5c-.5-1.1-1.44-1.33-2.1-.5s-.8,2.4-.3,3.5c.5,1.1,1.44,1.33,2.1.5.11-.14.21-.31.3-.5m.95-2h1c.55,0,1-.45,1-1s-.45-1-1-1h-1v5h1c.83,0,1.5-.67,1.5-1.5s-.67-1.5-1.5-1.5m5-2v5m.05-2.5c.46-.64,1.28-.72,1.83-.2.06.06.12.12.17.2v2.5m2.35-3c-.83.01-1.49.7-1.47,1.52.01.83.7,1.49,1.52,1.47.83-.01,1.49-.7,1.47-1.52-.01-.81-.67-1.46-1.47-1.47h-.05Zm2.5-2v5m3.4-5v5m0-.5c-.48.62-1.3.67-1.84.12-.54-.55-.58-1.5-.1-2.12s1.3-.67,1.84-.12c.04.04.07.08.1.12m3.3,1.8c-.34.72-1.1.98-1.7.57-.6-.41-.81-1.32-.47-2.04.34-.72,1.1-.98,1.7-.57.27.18.48.49.57.84h-2.3m3.3-1.1v3m.05-2.5c.46-.64,1.28-.72,1.83-.2.06.06.12.12.17.2"/>
  <path class="c" d="m156.46,5.25V.25h1c.83,0,1.5.56,1.5,1.25s-.67,1.25-1.5,1.25h-.95m6.1-1.5c-.5-1.1-1.44-1.33-2.1-.5s-.8,2.4-.3,3.5c.5,1.1,1.44,1.33,2.1.5.11-.14.21-.31.3-.5m.95-2h1c.55,0,1-.45,1-1s-.45-1-1-1h-1v5h1c.83,0,1.5-.67,1.5-1.5s-.67-1.5-1.5-1.5m5-2v5m.05-2.5c.46-.64,1.28-.72,1.83-.2.06.06.12.12.17.2v2.5m2.35-3c-.83.01-1.49.7-1.47,1.52.01.83.7,1.49,1.52,1.47.83-.01,1.49-.7,1.47-1.52-.01-.81-.67-1.46-1.47-1.47h-.05Zm2.5-2v5m3.4-5v5m0-.5c-.48.62-1.3.67-1.84.12-.54-.55-.58-1.5-.1-2.12s1.3-.67,1.84-.12c.04.04.07.08.1.12m3.3,1.8c-.34.72-1.1.98-1.7.57-.6-.41-.81-1.32-.47-2.04.34-.72,1.1-.98,1.7-.57.27.18.48.49.57.84h-2.3m3.3-1.1v3m.05-2.5c.46-.64,1.28-.72,1.83-.2.06.06.12.12.17.2"/>
  <path class="d" d="m173.26,123.17c0-.69-.56-1.25-1.25-1.25s-1.25.56-1.25,1.25.56,1.25,1.25,1.25,1.25.56,1.25,1.25-.56,1.25-1.25,1.25-1.25-.56-1.25-1.25m5.8.55c-.34.72-1.1.98-1.7.57-.6-.41-.81-1.32-.47-2.04.34-.72,1.1-.98,1.7-.57.27.18.48.49.57.84h-2.3m3.3-1.1v3m.05-2.5c.46-.64,1.28-.72,1.83-.2.06.06.12.12.17.2v2.5m3.45-2.25c0-.41-.56-.75-1.25-.75s-1.25.34-1.25.75.56.75,1.25.75h0c.69,0,1.25.34,1.25.75s-.56.75-1.25.75-1.25-.34-1.25-.75h0m4.9-2.25c-.83.01-1.49.7-1.47,1.52.01.83.7,1.49,1.52,1.47.83-.01,1.49-.7,1.47-1.52-.01-.81-.67-1.46-1.47-1.47h-.05Zm2.5,0v3m.05-2.5c.46-.64,1.28-.72,1.83-.2.06.06.12.12.17.2m3.45-.5v5m0-4.5c.48-.62,1.3-.67,1.84-.12.54.55.58,1.5.1,2.12s-1.3.67-1.84.12c-.04-.04-.07-.08-.1-.12m3.2-4.5v5m3.4-3v3m0-.5c-.48.62-1.3.67-1.84.12s-.58-1.5-.1-2.12,1.3-.67,1.84-.12c.04.04.07.08.1.12m2-1.5v4m-1-3.1h2m3.3,2.4c-.34.72-1.1.98-1.7.57-.6-.41-.81-1.32-.47-2.04s1.1-.98,1.7-.57c.27.18.48.49.57.84h-2.3"/>
  <path class="d" d="m225.36,141.73v-5h1c.83,0,1.5.56,1.5,1.25s-.67,1.25-1.5,1.25h-.95m.95.05l1.5,2.45m3.3-.7c-.34.72-1.1.98-1.7.57-.6-.41-.81-1.32-.47-2.04.34-.72,1.1-.98,1.7-.57.27.18.48.49.57.84h-2.3m4.3-2.1v4m-1-3.1h2m3.3.1v3m0-.5c-.48.62-1.3.67-1.84.12s-.58-1.5-.1-2.12,1.3-.67,1.84-.12c.04.04.07.08.1.12m1-1.5c.01-.05.07-.09.12-.07s.09.07.07.12-.07.09-.12.07c-.04,0-.06-.04-.07-.07v-.05Zm.1.95v3m1-2.95v3m.05-2.5c.46-.64,1.28-.72,1.83-.2.06.06.12.12.17.2v2.5m.95-4c.01-.05.07-.09.12-.07s.09.07.07.12-.07.09-.12.07c-.04,0-.06-.04-.07-.07v-.05Zm.1.95v3m1-2.95v3m.05-2.5c.46-.64,1.28-.72,1.83-.2.06.06.12.12.17.2v2.5m3.25-3v4c-.46.64-1.28.72-1.83.2-.06-.06-.12-.12-.17-.2m2-1.5c-.48.62-1.3.67-1.84.12-.54-.55-.58-1.5-.1-2.12s1.3-.67,1.84-.12c.04.04.07.08.1.12m3.5-.5v3m.05-2.5c.46-.64,1.28-.72,1.83-.2.06.06.12.12.17.2m.95-1.5c.01-.05.07-.09.12-.07.05.01.09.07.07.12s-.07.09-.12.07c-.04,0-.06-.04-.07-.07v-.05Zm.1.95v3m1-2.95v3m.05-2.5c.46-.64,1.28-.72,1.83-.2.06.06.12.12.17.2v2.5m3.25-3v4c-.46.64-1.28.72-1.83.2-.06-.06-.12-.12-.17-.2m2-1.5c-.48.62-1.3.67-1.84.12s-.58-1.5-.1-2.12,1.3-.67,1.84-.12c.04.04.07.08.1.12"/>
  <g>
    <path class="c" d="m30.84,58.5c2.21-2.21,34.04-6.09,39.11-3.86"/>
    <polygon class="f" points="67.66 56.13 67.46 55.67 69.72 54.68 68.56 52.5 69.01 52.27 70.41 54.93 67.66 56.13"/>
  </g>
  <g>
    <path class="c" d="m30.84,58.5c4.04-13.87,104.49-15.54,113.58-3.51"/>
    <polygon class="f" points="141.72 55.15 141.77 54.65 144.22 54.89 144.28 52.42 144.78 52.43 144.71 55.44 141.72 55.15"/>
  </g>
  <g>
    <path class="c" d="m37.99,73.05c1.97,3.21,30.41.69,35.09-2.7"/>
    <polygon class="f" points="72.67 72.88 72.19 72.75 72.85 70.37 70.43 69.89 70.53 69.4 73.47 69.99 72.67 72.88"/>
  </g>
  <g>
    <path class="c" d="m37.99,73.05c5.01,6.27,75.01,5.64,81.17-2.6"/>
    <polygon class="f" points="119.43 72.99 118.93 72.99 118.93 70.53 116.47 70.71 116.44 70.21 119.43 69.99 119.43 72.99"/>
  </g>
  <g>
    <path class="c" d="m168.45,7.69c-5.81,3.29-9.63,29.6.21,44.74"/>
    <polygon class="f" points="166.08 52.03 166.22 51.55 168.59 52.25 169.11 49.84 169.6 49.95 168.96 52.88 166.08 52.03"/>
  </g>
  <g>
    <path class="c" d="m134.5,200.97c.99-3.72,5.83-19.93,11.01-22.99"/>
    <polygon class="f" points="145.36 180.67 144.87 180.57 145.38 178.15 142.94 177.82 143.01 177.32 145.99 177.73 145.36 180.67"/>
  </g>
</svg>